PathFileType	4	(X/Y/Z)	s08c0401.trc
DataRate	CameraRate	NumFrames	NumMarkers	Units	OrigDataRate	OrigDataStartFrame	OrigNumFrames
200	200	4	50	mm	200	1500	2000
Frame#	Time	racr			lacr			c7			jug			rlel			rdr			llel			ldr			s2			lic			ric			lasi			rasi			rpsi			lpsi			rgt			lgt			rth1			rth2			rth3			rth4			rlfc			rmfc			rsh1			rsh2			rsh3			rsh4			rlmal			rmmal			rcal			rtoe			rmt5			lth1			lth2			lth4			lth3			llfc			lmfc			llmal			lmmal			lcal			lmt5			lsh1			lsh2			lsh3			lsh4			ltoe			SBIKE			LBIKE			RBIKE			
		X1	Y1	Z1	X2	Y2	Z2	X3	Y3	Z3	X4	Y4	Z4	X5	Y5	Z5	X6	Y6	Z6	X7	Y7	Z7	X8	Y8	Z8	X9	Y9	Z9	X10	Y10	Z10	X11	Y11	Z11	X12	Y12	Z12	X13	Y13	Z13	X14	Y14	Z14	X15	Y15	Z15	X16	Y16	Z16	X17	Y17	Z17	X18	Y18	Z18	X19	Y19	Z19	X20	Y20	Z20	X21	Y21	Z21	X22	Y22	Z22	X23	Y23	Z23	X24	Y24	Z24	X25	Y25	Z25	X26	Y26	Z26	X27	Y27	Z27	X28	Y28	Z28	X29	Y29	Z29	X30	Y30	Z30	X31	Y31	Z31	X32	Y32	Z32	X33	Y33	Z33	X34	Y34	Z34	X35	Y35	Z35	X36	Y36	Z36	X37	Y37	Z37	X38	Y38	Z38	X39	Y39	Z39	X40	Y40	Z40	X41	Y41	Z41	X42	Y42	Z42	X43	Y43	Z43	X44	Y44	Z44	X45	Y45	Z45	X46	Y46	Z46	X47	Y47	Z47	X48	Y48	Z48	X49	Y49	Z49	X50	Y50	Z50	
1500	7.5000	910.184645	1329.765999	-66.233311	839.978176	1382.336327	-395.364027	883.601511	1407.865543	-212.336512	809.870451	1267.524427	-230.868403	722.080834	1164.692411	97.304163	780.245414	940.315526	-55.739817	698.212067	1178.009661	-527.948486	784.602083	927.247288	-434.333402	300.039544	1286.680162	-250.034812	470.337569	1267.301057	-384.802865	437.742729	1253.508117	-70.339028	476.321611	1205.573488	-349.048582	458.792019	1204.135738	-107.769694	331.179154	1319.829779	-192.535520	343.213189	1324.647446	-287.366808	341.691778	1162.208685	-56.929432	396.275106	1148.344733	-429.073247	435.353509	1015.108242	-42.789043	499.435578	953.783156	-40.439688	524.429164	870.873450	-48.027759	531.164180	972.907064	-44.682826	581.732806	763.291716	-59.903185	570.281302	755.031936	-171.796067	495.306118	662.072727	-34.700158	479.276951	574.839585	-52.479108	423.110291	510.211092	-60.817651	509.763224	565.207545	-77.996270	365.577416	404.188231	-72.695432	389.258783	421.070369	-159.213936	281.281838	390.457736	-119.684139	569.257145	322.784733	-105.496441	475.001741	309.120210	-42.137206	447.056742	1016.790143	-427.043363	492.278413	942.566824	-418.612793	524.357247	952.725868	-405.390430	495.424427	853.385139	-418.582287	490.532287	721.063711	-406.101247	474.607292	698.780930	-298.627773	160.295175	454.586869	-412.728049	192.130358	442.899109	-328.834045	117.179168	498.317707	-368.222440	145.355657	283.855091	-421.449941	392.741820	633.266612	-429.449169	340.476238	567.500981	-414.315501	260.053389	529.987341	-417.184183	354.200865	552.357489	-377.753430	205.202022	222.291835	-351.470719	-137.393184	944.075787	-226.766506	18.106967	81.115319	-427.766735	18.108576	80.385606	-29.185757	
1501	7.5050	910.151532	1330.080879	-68.068628	838.531202	1382.525152	-397.519540	882.985327	1408.719224	-214.497730	809.727679	1268.158668	-233.465622	722.303908	1164.943470	95.413035	780.518220	940.358596	-55.006423	697.142035	1176.493280	-527.001188	784.322641	929.097740	-438.352567	299.348195	1286.438892	-249.913024	470.091910	1268.052934	-383.825873	437.549275	1252.220434	-69.455511	476.735755	1206.556418	-347.772957	458.101607	1202.507109	-106.458072	330.951447	1317.999449	-190.023529	342.686785	1324.085242	-285.555576	339.863583	1160.135225	-57.598590	398.846173	1149.511956	-429.005041	432.001344	1011.545066	-43.374301	494.678196	949.040528	-40.788301	518.228274	865.685667	-48.905667	526.880518	967.559833	-44.752560	574.241996	757.459458	-60.741047	563.287054	747.866168	-172.808928	489.794867	653.873892	-34.362723	475.150434	566.069280	-53.507860	420.217572	500.850715	-60.805550	505.751963	557.450156	-78.210851	364.694350	393.478105	-72.195891	387.165007	410.128315	-158.737022	280.561374	379.792244	-119.292889	568.578633	311.539287	-105.605821	474.346526	297.996149	-42.149488	450.520259	1018.453300	-426.677641	496.688261	944.837190	-417.804078	528.707818	955.502743	-404.682188	500.876765	855.703771	-417.103182	497.882482	723.973846	-403.469005	480.786292	702.201910	-295.864160	162.694900	464.856111	-412.347273	194.049780	452.580687	-328.440525	119.685206	509.042180	-368.235324	145.932283	294.279166	-421.374411	399.104896	638.211629	-427.329203	345.494212	573.716026	-412.785286	264.160955	537.867452	-415.917755	358.546399	558.180074	-375.818336	205.345740	232.142630	-351.526173	-137.428841	944.012087	-226.822448	18.086909	81.006300	-427.735190	18.077412	80.254128	-29.242253	
1502	7.5100	910.052115	1330.686947	-69.667693	837.092322	1382.704383	-399.948146	882.406040	1409.624563	-216.807397	809.516878	1268.725368	-235.788371	722.427609	1165.429011	93.578273	780.809290	940.379866	-54.181551	696.005476	1175.116967	-526.326788	784.166093	928.823884	-438.131723	298.862892	1285.804252	-250.132715	469.629030	1268.391117	-382.999146	437.544701	1250.677044	-68.719578	476.960190	1207.198850	-346.779411	457.645102	1200.654149	-105.120038	330.590256	1316.187400	-189.158641	341.950005	1323.814965	-284.966234	338.429130	1157.694119	-58.230157	401.061931	1150.451651	-428.796794	428.620388	1007.661083	-43.873190	489.822218	944.360603	-40.283988	511.508628	859.672168	-50.105138	522.639855	961.609498	-45.396861	566.731820	751.007160	-61.704667	555.720348	740.768521	-173.514362	484.126414	645.463099	-34.596820	470.963150	557.473841	-53.783791	417.246193	491.204554	-60.661966	501.339872	549.020046	-79.287274	363.203330	383.005493	-71.302924	386.604586	400.407482	-157.553769	279.329972	369.307154	-118.503889	567.258693	300.181525	-105.800139	473.053292	286.820230	-42.124960	453.325890	1019.846043	-426.702549	500.547463	946.885132	-417.401863	532.460209	958.056894	-404.281523	505.752270	857.969584	-415.956359	505.190898	726.885781	-401.013357	486.614240	705.433781	-293.154717	165.254633	475.170152	-411.972416	196.210601	462.361316	-327.940754	122.322558	519.605536	-368.021009	147.303965	304.718136	-421.492566	405.242825	643.550672	-425.483058	349.918327	580.215056	-411.018828	268.276555	545.843507	-414.750007	362.959654	564.211246	-374.210429	206.189241	242.075239	-351.492182	-137.514785	943.884334	-226.979415	18.061338	80.895097	-427.767398	17.990925	80.123198	-29.307546	
1503	7.5150	909.868122	1331.426922	-71.313349	835.781601	1382.735992	-402.450034	881.887285	1410.677333	-219.131513	809.240638	1269.223835	-237.855991	722.512592	1166.137399	91.831120	781.016813	940.344754	-53.366715	694.473565	1173.513556	-525.923157	783.996744	928.719113	-437.949757	298.377185	1285.124768	-249.349195	468.820035	1268.488046	-382.164969	437.687273	1248.996413	-68.149096	477.102523	1207.682572	-345.718221	457.368802	1198.277038	-103.571802	330.459051	1314.282338	-187.193193	341.109077	1323.448531	-284.570536	337.294590	1154.971442	-58.706790	402.798394	1151.273141	-428.522988	425.210721	1003.282628	-44.467248	485.316142	937.943725	-42.658522	504.764031	853.570725	-51.251705	518.096726	955.180957	-45.982825	558.193946	744.291882	-62.735907	546.349983	733.749504	-175.034626	478.283556	637.022254	-35.354069	466.596860	548.669979	-54.220833	414.064169	481.506510	-60.423188	496.648747	541.347686	-80.184411	361.212772	372.714213	-70.378507	383.033580	389.609477	-157.290365	277.518793	359.114073	-117.519228	565.266437	289.033625	-106.021332	471.242558	275.840257	-42.144454	455.452431	1020.951267	-426.887938	503.816377	948.794900	-417.120212	535.444508	960.525780	-403.550666	510.352629	859.940934	-415.310195	512.212544	729.990501	-398.531073	491.216488	708.387462	-291.197207	168.083339	485.434647	-411.622219	198.418234	472.122815	-327.724184	125.097517	530.002516	-367.898719	149.239220	315.071776	-421.472102	411.087353	649.447621	-423.684656	354.856994	586.789909	-409.731234	272.392444	554.068563	-413.758215	367.715193	569.847161	-372.109791	207.914975	252.287574	-351.625962	-137.695672	943.779870	-227.202505	18.030075	80.730154	-427.816229	18.013892	80.204010	-29.223436	
